<?xml version="1.0" encoding="utf-8"?>
<!-- Generator: Adobe Illustrator 24.2.1, SVG Export Plug-In . SVG Version: 6.00 Build 0)  -->
<svg version="1.1" id="Layer_1" xmlns="http://www.w3.org/2000/svg" xmlns:xlink="http://www.w3.org/1999/xlink" x="0px" y="0px"
	 viewBox="0 0 2646.8 534.4" style="enable-background:new 0 0 2646.8 534.4;" xml:space="preserve">
<style type="text/css">
	.st0{fill-rule:evenodd;clip-rule:evenodd;fill:#0F766E;}
	.st1{fill-rule:evenodd;clip-rule:evenodd;fill:#0D9488;}
	.st2{fill-rule:evenodd;clip-rule:evenodd;fill:none;}
	.st3{fill:#18181B;}
	.st4{font-family:'Rubik-SemiBold';}
	.st5{font-size:400px;}
	.st6{fill:#0F766E;}
</style>
<g>
	<path class="st0" d="M203.6,126.6c0,0-145.5-58.5-177.4-65.5c-32-7-28.7,111.4-0.9,231.3C53.1,412.3,203.6,126.6,203.6,126.6"/>
	<path class="st1" d="M189.7,158.3c0,0-126.3-50.8-154-56.8C7.9,95.4,10.9,198.1,35,302.2C59.1,406.3,189.7,158.3,189.7,158.3"/>
	<path class="st0" d="M372,114.7c0,0,103.9-95.1,128-110.6c24.1-15.5,46.4,95.9,49.4,215.5C552.5,339.3,372,114.7,372,114.7"/>
	<path class="st1" d="M413.5,130.3c0,0,74-87.5,91.1-102.5c17.1-15,32.7,72.1,34.6,167.9S413.5,130.3,413.5,130.3z"/>
	<path class="st0" d="M315.1,88.8c172.6,0.1,408.2,277.5,129.1,407.8C281.7,572.5,36.4,534,29.1,379.4
		C23.5,261.3,142.6,88.7,315.1,88.8z"/>
	<path class="st0" d="M384.6,102.1c0.9,6.1-26.8,88.3,32.8,223c-33.1,37.2-35.4,19.1-56,14.3c-13-64-30.4-147-171.4-218.3
		C239.4,91.1,329.7,76.1,384.6,102.1z"/>
	<path class="st0" d="M395.9,354.6c-0.1-1.4,1-2.7,2.5-2.7c1.4-0.1,2.7,1,2.8,2.4c0,0.2,2.7,26.5,0.3,31.8
		c-4.8,10.7-13.8,18-24.1,21.9c-6.2,2.4-12.8,3.5-19.4,3.4c-6.6-0.1-13-1.3-18.7-3.8l-0.2-0.1c-8.2-3.6-14.8-9.7-18.1-18.1
		c-0.5-1.3,0.2-2.8,1.5-3.4c1.3-0.5,2.9,0.2,3.4,1.5c2.7,7.1,8.4,12.2,15.3,15.2l0.1,0.1c5,2.2,10.8,3.3,16.6,3.4
		c5.9,0.1,11.9-1,17.5-3.1c9.1-3.4,17-9.8,21.1-19.2C398.5,379.8,395.9,354.8,395.9,354.6"/>
	<path class="st0" d="M397.8,385.2c-0.4-1.3,0.4-2.7,1.8-3.1c1.3-0.4,2.8,0.4,3.2,1.8c1.7,6.1,6.1,10.1,11.5,12
		c3.5,1.2,7.4,1.5,11.3,0.9c4-0.6,7.9-2.3,11.4-4.8c7-5.2,12.3-14.3,12.7-27.7c0.1-1.4,1.2-2.5,2.6-2.5c1.4,0.1,2.5,1.2,2.5,2.6
		c-0.4,15.2-6.6,25.7-14.8,31.7c-4.2,3.1-9,5-13.7,5.8c-4.8,0.8-9.6,0.4-13.9-1.1C405.7,398.2,400,393,397.8,385.2"/>
	<path class="st0" d="M389.8,323.7c0,0-41.9,8.9-25.8,24.9c16.1,16,32,19.6,43.4,9C418.8,347,438.9,314.8,389.8,323.7"/>
	<path class="st0" d="M366.3,332.8c-5.8,4-8.9,9.3-2.3,15.8c16.1,16,32,19.6,43.4,9c8-7.5,20.2-25.4,10-32.5
		c2.1,11.3-7.2,26.6-26.7,25C369.2,348.3,366.1,338.8,366.3,332.8"/>
	<path class="st0" d="M86.8,365.7c-2.1-0.2-3.8-2.1-3.5-4.3c0.2-2.1,2.2-3.7,4.3-3.4l50.4,5.6c2.1,0.2,3.8,2.1,3.5,4.3
		c-0.2,2.1-2.2,3.7-4.3,3.4L86.8,365.7z"/>
	<path class="st0" d="M85.5,403.1c-2.2,0.2-4.1-1.5-4.2-3.6c-0.2-2.1,1.5-4,3.7-4.1l50.7-3.1c2.2-0.2,4.1,1.5,4.2,3.6
		c0.2,2.1-1.5,4-3.7,4.1L85.5,403.1z"/>
	<path class="st0" d="M96.6,439.7c-1.9,1-2.7,3.3-1.7,5.3c1,1.9,3.4,2.6,5.3,1.7l45-23.2c1.9-1,2.7-3.3,1.7-5.3
		c-1-1.9-3.4-2.6-5.3-1.7L96.6,439.7"/>
	<path class="st0" d="M254.4,329.1c19.7,31.1,48.5-6.8,33.9-34c-10.8-20.2-30.9-12.6-37.5,4C247.5,307.6,247.6,318.4,254.4,329.1z"
		/>
	<path class="st0" d="M265.1,293.5c3.2-0.1,5.8,2,5.8,4.7c0.1,2.6-2.5,4.7-5.7,4.8c-3.2,0.1-5.8-2-5.8-4.7
		C259.3,295.7,261.8,293.6,265.1,293.5z"/>
	<path class="st0" d="M258.2,228.6c0,0-33.2,29.1-28.8,36.2c4.3,7.1,51.1-10.7,57.4-24.8C293.1,225.9,274,219.1,258.2,228.6"/>
	<path class="st0" d="M456.4,294.4c25.9,26.3,46-16.6,25.9-40.2c-14.9-17.5-32.8-6-35.8,11.6C445.1,274.9,447.5,285.4,456.4,294.4"
		/>
	<path class="st0" d="M459.3,257.5c3.1-0.7,6.2,0.8,6.7,3.3c0.6,2.5-1.5,5.2-4.6,5.8c-3.1,0.7-6.2-0.8-6.7-3.3
		C454.1,260.8,456.2,258.2,459.3,257.5z"/>
	<path class="st0" d="M450.6,189.8c0,0,41.5,15.6,40,23.7s-51.6,7.9-62.6-3.1C417.1,199.4,432.4,186.4,450.6,189.8z"/>
</g>
<rect x="644.2" y="99.6" class="st2" width="2076.2" height="337.7"/>
<text transform="matrix(1 0 0 1 644.238 383.6048)"><tspan x="0" y="0" class="st3 st4 st5">Copykat</tspan><tspan x="1638.8" y="0" class="st6 st4 st5">AI</tspan></text>
</svg>
