<svg xmlns="http://www.w3.org/2000/svg" viewBox="0 0 2617.35 534.4"><path d="M203.6,126.6S58.1,68.1,26.2,61.1s-28.7,111.4-.9,231.3S203.6,126.6,203.6,126.6" style="fill:#0f766e;fill-rule:evenodd"/><path d="M189.7,158.3s-126.3-50.8-154-56.8S10.9,198.1,35,302.2,189.7,158.3,189.7,158.3" style="fill:#0d9488;fill-rule:evenodd"/><path d="M372,114.7S475.9,19.6,500,4.1s46.4,95.9,49.4,215.5S372,114.7,372,114.7" style="fill:#0f766e;fill-rule:evenodd"/><path d="M413.5,130.3s74-87.5,91.1-102.5,32.7,72.1,34.6,167.9S413.5,130.3,413.5,130.3Z" style="fill:#0d9488;fill-rule:evenodd"/><path d="M315.1,88.8c172.6.1,408.2,277.5,129.1,407.8C281.7,572.5,36.4,534,29.1,379.4,23.5,261.3,142.6,88.7,315.1,88.8Z" style="fill:#0f766e;fill-rule:evenodd"/><path d="M384.6,102.1c.9,6.1-26.8,88.3,32.8,223-33.1,37.2-35.4,19.1-56,14.3-13-64-30.4-147-171.4-218.3C239.4,91.1,329.7,76.1,384.6,102.1Z" style="fill:#0f766e;fill-rule:evenodd"/><path d="M395.9,354.6a2.52,2.52,0,0,1,2.5-2.7,2.66,2.66,0,0,1,2.8,2.4c0,.2,2.7,26.5.3,31.8-4.8,10.7-13.8,18-24.1,21.9a51.55,51.55,0,0,1-19.4,3.4,48.42,48.42,0,0,1-18.7-3.8l-.2-.1c-8.2-3.6-14.8-9.7-18.1-18.1a2.75,2.75,0,0,1,1.5-3.4,2.71,2.71,0,0,1,3.4,1.5c2.7,7.1,8.4,12.2,15.3,15.2l.1.1a43.56,43.56,0,0,0,16.6,3.4,47.87,47.87,0,0,0,17.5-3.1c9.1-3.4,17-9.8,21.1-19.2,2-4.1-.6-29.1-.6-29.3" style="fill:#0f766e;fill-rule:evenodd"/><path d="M397.8,385.2a2.51,2.51,0,0,1,1.8-3.1,2.61,2.61,0,0,1,3.2,1.8,17.55,17.55,0,0,0,11.5,12,23.79,23.79,0,0,0,11.3.9A26.58,26.58,0,0,0,437,392c7-5.2,12.3-14.3,12.7-27.7a2.55,2.55,0,0,1,5.1.1c-.4,15.2-6.6,25.7-14.8,31.7a32.32,32.32,0,0,1-13.7,5.8,28.22,28.22,0,0,1-13.9-1.1,23.52,23.52,0,0,1-14.6-15.6" style="fill:#0f766e;fill-rule:evenodd"/><path d="M389.8,323.7s-41.9,8.9-25.8,24.9,32,19.6,43.4,9,31.5-42.8-17.6-33.9" style="fill:#0f766e;fill-rule:evenodd"/><path d="M366.3,332.8c-5.8,4-8.9,9.3-2.3,15.8,16.1,16,32,19.6,43.4,9,8-7.5,20.2-25.4,10-32.5,2.1,11.3-7.2,26.6-26.7,25-21.5-1.8-24.6-11.3-24.4-17.3" style="fill:#0f766e;fill-rule:evenodd"/><path d="M86.8,365.7a3.87,3.87,0,1,1,.8-7.7l50.4,5.6a3.87,3.87,0,1,1-.8,7.7Z" style="fill:#0f766e;fill-rule:evenodd"/><path d="M85.5,403.1a3.86,3.86,0,1,1-.5-7.7l50.7-3.1a3.86,3.86,0,1,1,.5,7.7Z" style="fill:#0f766e;fill-rule:evenodd"/><path d="M96.6,439.7a3.94,3.94,0,0,0-1.7,5.3,4.06,4.06,0,0,0,5.3,1.7l45-23.2a3.94,3.94,0,0,0,1.7-5.3,4.06,4.06,0,0,0-5.3-1.7l-45,23.2" style="fill:#0f766e;fill-rule:evenodd"/><path d="M254.4,329.1c19.7,31.1,48.5-6.8,33.9-34-10.8-20.2-30.9-12.6-37.5,4C247.5,307.6,247.6,318.4,254.4,329.1Z" style="fill:#0f766e;fill-rule:evenodd"/><path d="M265.1,293.5c3.2-.1,5.8,2,5.8,4.7s-2.5,4.7-5.7,4.8-5.8-2-5.8-4.7S261.8,293.6,265.1,293.5Z" style="fill:#0f766e;fill-rule:evenodd"/><path d="M258.2,228.6s-33.2,29.1-28.8,36.2,51.1-10.7,57.4-24.8-12.8-20.9-28.6-11.4" style="fill:#0f766e;fill-rule:evenodd"/><path d="M456.4,294.4c25.9,26.3,46-16.6,25.9-40.2-14.9-17.5-32.8-6-35.8,11.6-1.4,9.1,1,19.6,9.9,28.6" style="fill:#0f766e;fill-rule:evenodd"/><path d="M459.3,257.5c3.1-.7,6.2.8,6.7,3.3s-1.5,5.2-4.6,5.8-6.2-.8-6.7-3.3S456.2,258.2,459.3,257.5Z" style="fill:#0f766e;fill-rule:evenodd"/><path d="M450.6,189.8s41.5,15.6,40,23.7-51.6,7.9-62.6-3.1S432.4,186.4,450.6,189.8Z" style="fill:#0f766e;fill-rule:evenodd"/><rect x="644.2" y="99.6" width="2076.2" height="337.7" style="fill:none"/><g style="isolation:isolate"><g style="isolation:isolate"><path d="M739.84,407.24q-37.2,0-63.6-12.6t-40.8-36.8q-14.4-24.19-16-59-.41-16.39-.4-35.2t.4-36q1.59-34.39,16.2-58.6t41-37q26.4-12.79,63.2-12.8,27.2,0,49,6.8a114.53,114.53,0,0,1,37.8,19.6,94.29,94.29,0,0,1,25,30A85.17,85.17,0,0,1,861,214a6.75,6.75,0,0,1-2.2,6,8.84,8.84,0,0,1-6.2,2.4h-46a12,12,0,0,1-7.6-2.2q-2.81-2.19-4.4-7.8-6-24-20-32.6t-34.8-8.6q-24.4,0-38.8,13.6t-15.6,44.8q-1.2,32.81,0,67.2,1.2,31.2,15.6,44.8t38.8,13.6q20.79,0,35-8.8t19.8-32.4q1.59-5.6,4.4-7.8a12,12,0,0,1,7.6-2.2h46a8.84,8.84,0,0,1,6.2,2.4,6.75,6.75,0,0,1,2.2,6,85.11,85.11,0,0,1-9.4,38.4,94.07,94.07,0,0,1-25,30,114.15,114.15,0,0,1-37.8,19.6Q767,407.24,739.84,407.24Z" style="fill:#18181b"/><path d="M996.64,407.24q-33.21,0-55.6-11t-34.21-31.4q-11.79-20.4-13-47.6-.39-8-.39-18.2t.39-17.8q1.21-27.6,13.61-47.8t34.8-31.2q22.39-11,54.4-11,31.59,0,54,11t34.8,31.2q12.39,20.2,14,47.8.39,7.61.39,17.8t-.39,18.2q-1.61,27.21-13.4,47.6t-34.21,31.4Q1029.44,407.24,996.64,407.24Zm0-44.4q19.59,0,29.4-12t11-35.6q.39-6,.4-16t-.4-16q-1.2-23.19-11-35.4t-29.4-12.2q-19.6,0-29.6,12.2t-11.21,35.4q-.39,6-.39,16t.39,16Q957,338.85,967,350.84T996.64,362.84Z" style="fill:#18181b"/><path d="M1151.83,479.24a9.59,9.59,0,0,1-10-10v-264a9.59,9.59,0,0,1,10-10h38a9.58,9.58,0,0,1,10,10v15.2a74.5,74.5,0,0,1,25-21q15.4-8.19,38.21-8.2,20.39,0,35.79,6.6a70.89,70.89,0,0,1,26,18.8,89,89,0,0,1,16.6,29.4q6,17.21,6.8,38.8.4,7.61.4,14.4t-.4,14.8a133.3,133.3,0,0,1-6.6,37.6,86.56,86.56,0,0,1-16.59,29.6,73.82,73.82,0,0,1-26.21,19.2q-15.39,6.8-35.79,6.8-20.8,0-35.61-7.4a67.88,67.88,0,0,1-24.39-20.2v89.6a9.61,9.61,0,0,1-10,10Zm92.8-120q15.21,0,24-6.6a36.2,36.2,0,0,0,12.6-17.4,86.79,86.79,0,0,0,4.6-23.6,190,190,0,0,0,0-24.8,86.87,86.87,0,0,0-4.6-23.6,36.2,36.2,0,0,0-12.6-17.4q-8.79-6.6-24-6.6-14.79,0-23.8,6.8a40,40,0,0,0-13.2,17.2,65,65,0,0,0-4.59,22.4q-.4,7.2-.41,14.8t.41,15.2a55.51,55.51,0,0,0,4.79,21,38.88,38.88,0,0,0,13.6,16.2Q1230.64,359.25,1244.63,359.24Z" style="fill:#18181b"/><path d="M1420.23,479.24a8.37,8.37,0,0,1-5.8-2.4,7.84,7.84,0,0,1-2.6-6,8.81,8.81,0,0,1,.4-2.2c.27-.94.67-2.07,1.2-3.4l31.2-74.8-76.8-181.2a15.61,15.61,0,0,1-1.2-5.2,10.67,10.67,0,0,1,2.8-6.2,7.84,7.84,0,0,1,6-2.6h39.2q4.8,0,7.2,2.6a19.28,19.28,0,0,1,3.6,5.4l49.6,123.6,50.8-123.6a21.49,21.49,0,0,1,4-5.6c1.6-1.6,4.14-2.4,7.6-2.4h38a8.47,8.47,0,0,1,6.2,2.6,8,8,0,0,1,2.6,5.8,19.14,19.14,0,0,1-1.2,5.6l-113.2,262a19.11,19.11,0,0,1-4.2,5.6q-2.6,2.4-7.8,2.4Z" style="fill:#18181b"/><path d="M1626.63,403.24a9.59,9.59,0,0,1-10-10v-264a9.59,9.59,0,0,1,10-10h39.2a10,10,0,0,1,7,2.8,9.42,9.42,0,0,1,3,7.2v135.2L1737,202q3.2-2.79,5.8-4.8t8.2-2h45.6a8.88,8.88,0,0,1,8.8,8.8,9.87,9.87,0,0,1-.8,3.6,6.52,6.52,0,0,1-2.8,3.2l-77.2,77.6,87.2,99.6q3.2,3.21,3.2,6.4a8.82,8.82,0,0,1-2.4,6.2,8.26,8.26,0,0,1-6.4,2.6h-46.4c-4,0-6.87-.66-8.6-2s-3.67-2.93-5.8-4.8l-69.6-78.4v75.2a9.39,9.39,0,0,1-3,7.2,9.92,9.92,0,0,1-7,2.8Z" style="fill:#18181b"/><path d="M1900.23,407.24q-21.2,0-38-8.2a69.75,69.75,0,0,1-26.8-22.2,52.39,52.39,0,0,1-10-31.2q0-28.39,23-44.8t60.6-22.4l52.4-7.6v-7.2q0-15.6-7.2-24t-25.2-8.4q-13.2,0-21,5.2a36.34,36.34,0,0,0-12.2,13.6,10.52,10.52,0,0,1-9.6,5.2h-38a8.77,8.77,0,0,1-6.8-2.6,7.5,7.5,0,0,1-2-6.2q0-6.8,5.2-16t16-18.2q10.8-9,27.8-15t41-6q25.2,0,43.2,6t29,16.8a64.87,64.87,0,0,1,16,25,91.61,91.61,0,0,1,5,30.6v123.6a9.71,9.71,0,0,1-2.8,7.2,9.25,9.25,0,0,1-6.8,2.8h-39.6a9.25,9.25,0,0,1-6.8-2.8,9.71,9.71,0,0,1-2.8-7.2v-14.8a61.1,61.1,0,0,1-14,14.2,72.1,72.1,0,0,1-21,10.6Q1916.64,407.23,1900.23,407.24Zm16-41.6a48.9,48.9,0,0,0,23.6-5.6,39.41,39.41,0,0,0,16.4-17.2q6-11.59,6-29.2v-6.8l-37.2,6q-21.19,3.6-31.2,10.8t-10,17.6a19.36,19.36,0,0,0,4.6,13,30.5,30.5,0,0,0,12,8.4A41.64,41.64,0,0,0,1916.23,365.64Z" style="fill:#18181b"/><path d="M2169.43,403.24q-24.81,0-42.2-8.2a57,57,0,0,1-26.6-25.4q-9.21-17.19-9.2-43.2v-84h-31.2a9.71,9.71,0,0,1-7.2-2.8,9.23,9.23,0,0,1-2.8-6.8v-27.6a9.59,9.59,0,0,1,10-10h31.2v-66a9.42,9.42,0,0,1,3-7.2,10,10,0,0,1,7-2.8H2141a9.3,9.3,0,0,1,6.8,2.8,9.78,9.78,0,0,1,2.8,7.2v66h50a9.59,9.59,0,0,1,10,10v27.6a9.27,9.27,0,0,1-2.8,6.8,9.74,9.74,0,0,1-7.2,2.8h-50v79.2q0,15.21,5.6,23.8T2175,354h29.2a9.78,9.78,0,0,1,7.2,2.8,9.3,9.3,0,0,1,2.8,6.8v29.6a9.59,9.59,0,0,1-10,10Z" style="fill:#18181b"/></g><g style="isolation:isolate"><path d="M2251,403.24a7.8,7.8,0,0,1-6-2.6,8.33,8.33,0,0,1-2.4-5.8,14.74,14.74,0,0,1,.4-3.6l95.2-257.2a15.51,15.51,0,0,1,4.8-7.6q3.6-3.19,10-3.2h51.2q6.39,0,10,3.2a18.6,18.6,0,0,1,5.2,7.6l94.8,257.2a8,8,0,0,1-1.8,9.4,8.45,8.45,0,0,1-6.2,2.6h-42q-5.61,0-8.4-2.8a14,14,0,0,1-3.6-5.2l-17.2-44.8h-112.8l-16.8,44.8a23.08,23.08,0,0,1-3.8,5.2c-1.74,1.87-4.6,2.8-8.6,2.8Zm86.4-104.4h82.4L2378.64,184Z" style="fill:#0f766e"/><path d="M2558.64,403.24a9.23,9.23,0,0,1-6.8-2.8,9.71,9.71,0,0,1-2.8-7.2v-260a9.74,9.74,0,0,1,2.8-7.2,9.27,9.27,0,0,1,6.8-2.8h46a9.3,9.3,0,0,1,6.8,2.8,9.78,9.78,0,0,1,2.8,7.2v260a9.75,9.75,0,0,1-2.8,7.2,9.26,9.26,0,0,1-6.8,2.8Z" style="fill:#0f766e"/></g></g></svg>