<?xml version="1.0" encoding="utf-8"?>
<!-- Generator: Adobe Illustrator 24.2.1, SVG Export Plug-In . SVG Version: 6.00 Build 0)  -->
<svg version="1.1" id="Layer_1" xmlns="http://www.w3.org/2000/svg" xmlns:xlink="http://www.w3.org/1999/xlink" x="0px" y="0px"
	 viewBox="0 0 2706 534.4" style="enable-background:new 0 0 2706 534.4;" xml:space="preserve">
<style type="text/css">
	.st0{fill-rule:evenodd;clip-rule:evenodd;fill:#0F766E;}
	.st1{fill-rule:evenodd;clip-rule:evenodd;fill:#0D9488;}
	.st2{fill:none;}
	.st3{fill:#18181B;}
	.st4{fill:#0F766E;}
</style>
<path class="st0" d="M203.6,126.6c0,0-145.5-58.5-177.4-65.5s-28.7,111.4-0.9,231.3S203.6,126.6,203.6,126.6"/>
<path class="st1" d="M189.7,158.3c0,0-126.3-50.8-154-56.8S10.9,198.1,35,302.2S189.7,158.3,189.7,158.3"/>
<path class="st0" d="M372,114.7c0,0,103.9-95.1,128-110.6c24.1-15.5,46.4,95.9,49.4,215.5S372,114.7,372,114.7"/>
<path class="st1" d="M413.5,130.3c0,0,74-87.5,91.1-102.5s32.7,72.1,34.6,167.9S413.5,130.3,413.5,130.3z"/>
<path class="st0" d="M315.1,88.8c172.6,0.1,408.2,277.5,129.1,407.8C281.7,572.5,36.4,534,29.1,379.4
	C23.5,261.3,142.6,88.7,315.1,88.8z"/>
<path class="st0" d="M384.6,102.1c0.9,6.1-26.8,88.3,32.8,223c-33.1,37.2-35.4,19.1-56,14.3c-13-64-30.4-147-171.4-218.3
	C239.4,91.1,329.7,76.1,384.6,102.1z"/>
<path class="st0" d="M395.9,354.6c-0.1-1.4,0.9-2.6,2.3-2.7c0.1,0,0.1,0,0.2,0c1.4-0.1,2.7,1,2.8,2.4c0,0.2,2.7,26.5,0.3,31.8
	c-4.8,10.7-13.8,18-24.1,21.9c-6.2,2.4-12.8,3.5-19.4,3.4c-6.4,0-12.8-1.3-18.7-3.8l-0.2-0.1c-8.2-3.6-14.8-9.7-18.1-18.1
	c-0.5-1.4,0.2-2.8,1.5-3.4c1.4-0.5,2.8,0.2,3.4,1.5c2.7,7.1,8.4,12.2,15.3,15.2l0.1,0.1c5.3,2.2,10.9,3.4,16.6,3.4
	c6,0.1,11.9-1,17.5-3.1c9.1-3.4,17-9.8,21.1-19.2C398.5,379.8,395.9,354.8,395.9,354.6"/>
<path class="st0" d="M397.8,385.2c-0.4-1.3,0.4-2.7,1.8-3.1c0,0,0,0,0,0c1.4-0.4,2.8,0.4,3.2,1.8c1.6,5.7,5.9,10.2,11.5,12
	c3.6,1.2,7.5,1.5,11.3,0.9c4.1-0.7,8-2.3,11.4-4.8c7-5.2,12.3-14.3,12.7-27.7c0-1.4,1.2-2.5,2.6-2.5s2.5,1.2,2.5,2.6
	c-0.4,15.2-6.6,25.7-14.8,31.7c-4.1,3-8.7,5-13.7,5.8c-4.7,0.8-9.4,0.4-13.9-1.1C405.3,398.2,399.9,392.4,397.8,385.2"/>
<path class="st0" d="M389.8,323.7c0,0-41.9,8.9-25.8,24.9s32,19.6,43.4,9S438.9,314.8,389.8,323.7"/>
<path class="st0" d="M366.3,332.8c-5.8,4-8.9,9.3-2.3,15.8c16.1,16,32,19.6,43.4,9c8-7.5,20.2-25.4,10-32.5
	c2.1,11.3-7.2,26.6-26.7,25C369.2,348.3,366.1,338.8,366.3,332.8"/>
<path class="st0" d="M86.8,365.7c-2.1-0.2-3.7-2.1-3.5-4.2c0.2-2.1,2.1-3.7,4.3-3.5l0,0l50.4,5.6c2.1,0.2,3.7,2.1,3.5,4.2
	c-0.2,2.1-2.1,3.7-4.3,3.5L86.8,365.7z"/>
<path class="st0" d="M85.5,403.1c-2.1,0.2-4-1.3-4.2-3.5c-0.2-2.1,1.3-4,3.5-4.2c0.1,0,0.2,0,0.2,0l50.7-3.1c2.1-0.2,4,1.3,4.2,3.5
	s-1.3,4-3.5,4.2c-0.1,0-0.2,0-0.2,0L85.5,403.1z"/>
<path class="st0" d="M96.6,439.7c-1.9,1-2.7,3.4-1.7,5.3c1,1.9,3.4,2.6,5.3,1.7l45-23.2c1.9-1,2.7-3.4,1.7-5.3
	c-1-1.9-3.4-2.6-5.3-1.7L96.6,439.7"/>
<path class="st0" d="M254.4,329.1c19.7,31.1,48.5-6.8,33.9-34c-10.8-20.2-30.9-12.6-37.5,4C247.5,307.6,247.6,318.4,254.4,329.1z"/>
<path class="st0" d="M265.1,293.5c3.2-0.1,5.8,2,5.8,4.7s-2.5,4.7-5.7,4.8s-5.8-2-5.8-4.7S261.8,293.6,265.1,293.5z"/>
<path class="st0" d="M258.2,228.6c0,0-33.2,29.1-28.8,36.2s51.1-10.7,57.4-24.8S274,219.1,258.2,228.6"/>
<path class="st0" d="M456.4,294.4c25.9,26.3,46-16.6,25.9-40.2c-14.9-17.5-32.8-6-35.8,11.6C445.1,274.9,447.5,285.4,456.4,294.4"/>
<path class="st0" d="M459.3,257.5c3.1-0.7,6.2,0.8,6.7,3.3s-1.5,5.2-4.6,5.8s-6.2-0.8-6.7-3.3S456.2,258.2,459.3,257.5z"/>
<path class="st0" d="M450.6,189.8c0,0,41.5,15.6,40,23.7s-51.6,7.9-62.6-3.1S432.4,186.4,450.6,189.8z"/>
<rect x="644.2" y="99.6" class="st2" width="2076.2" height="337.7"/>
<g>
	<g>
		<path class="st3" d="M829.8,407.2c-24.8,0-46-4.2-63.6-12.6c-17.6-8.4-31.2-20.7-40.8-36.8c-9.6-16.1-14.9-35.8-16-59
			c-0.3-10.9-0.4-22.7-0.4-35.2c0-12.5,0.1-24.5,0.4-36c1.1-22.9,6.5-42.5,16.2-58.6s23.4-28.5,41-37c17.6-8.5,38.7-12.8,63.2-12.8
			c18.1,0,34.5,2.3,49,6.8c13.7,4.1,26.5,10.8,37.8,19.6c10.3,8.1,18.9,18.4,25,30c6.1,11.9,9.3,25,9.4,38.4c0.3,2.2-0.5,4.5-2.2,6
			c-1.7,1.6-3.9,2.4-6.2,2.4h-46c-2.7,0.1-5.4-0.6-7.6-2.2c-1.9-1.5-3.3-4.1-4.4-7.8c-4-16-10.7-26.9-20-32.6
			c-9.3-5.7-20.9-8.6-34.8-8.6c-16.3,0-29.2,4.5-38.8,13.6s-14.8,24-15.6,44.8c-0.8,21.9-0.8,44.3,0,67.2c0.8,20.8,6,35.7,15.6,44.8
			s22.5,13.6,38.8,13.6c13.9,0,25.5-2.9,35-8.8c9.5-5.9,16.1-16.7,19.8-32.4c1.1-3.7,2.5-6.3,4.4-7.8c2.2-1.6,4.9-2.3,7.6-2.2h46
			c2.3,0,4.5,0.8,6.2,2.4c1.7,1.5,2.5,3.8,2.2,6c-0.1,13.4-3.3,26.5-9.4,38.4c-6.1,11.6-14.7,21.9-25,30
			c-11.3,8.8-24.1,15.5-37.8,19.6C864.3,405,847.9,407.2,829.8,407.2z"/>
		<path class="st3" d="M1086.6,407.2c-22.1,0-40.7-3.7-55.6-11c-14.9-7.3-26.3-17.8-34.2-31.4c-7.9-13.6-12.2-29.5-13-47.6
			c-0.3-5.3-0.4-11.4-0.4-18.2s0.1-12.7,0.4-17.8c0.8-18.4,5.3-34.3,13.6-47.8c8.3-13.5,19.9-23.9,34.8-31.2
			c14.9-7.3,33.1-11,54.4-11c21.1,0,39.1,3.7,54,11c14.9,7.3,26.5,17.7,34.8,31.2c8.3,13.5,12.9,29.4,14,47.8
			c0.3,5.1,0.4,11,0.4,17.8s-0.1,12.9-0.4,18.2c-1.1,18.1-5.5,34-13.4,47.6c-7.9,13.6-19.3,24.1-34.2,31.4
			C1126.9,403.6,1108.5,407.2,1086.6,407.2z M1086.6,362.8c13.1,0,22.9-4,29.4-12s10.2-19.9,11-35.6c0.3-4,0.4-9.3,0.4-16
			c0-6.7-0.1-12-0.4-16c-0.8-15.5-4.5-27.3-11-35.4c-6.5-8.1-16.3-12.2-29.4-12.2c-13.1,0-22.9,4.1-29.6,12.2
			c-6.7,8.1-10.4,19.9-11.2,35.4c-0.3,4-0.4,9.3-0.4,16s0.1,12,0.4,16c0.8,15.7,4.5,27.6,11.2,35.6
			C1063.7,358.8,1073.5,362.8,1086.6,362.8z"/>
		<path class="st3" d="M1241.8,479.2c-5.3,0.2-9.8-3.9-10-9.2c0-0.3,0-0.6,0-0.8v-264c-0.2-5.3,3.9-9.8,9.2-10c0.3,0,0.6,0,0.8,0h38
			c5.3-0.2,9.8,3.9,10,9.1c0,0.3,0,0.6,0,0.9v15.2c6.7-8.8,15.2-15.9,25-21c10.3-5.5,23-8.2,38.2-8.2c13.6,0,25.5,2.2,35.8,6.6
			c10,4.2,18.9,10.6,26,18.8c7.4,8.7,13,18.6,16.6,29.4c4,11.5,6.3,24.4,6.8,38.8c0.3,5.1,0.4,9.9,0.4,14.4s-0.1,9.5-0.4,14.8
			c-0.4,12.8-2.6,25.4-6.6,37.6c-3.5,10.9-9.2,20.9-16.6,29.6c-7.2,8.3-16.2,14.8-26.2,19.2c-10.3,4.5-22.2,6.8-35.8,6.8
			c-13.9,0-25.7-2.5-35.6-7.4c-9.6-4.7-18-11.6-24.4-20.2v89.6c0.2,5.3-3.9,9.8-9.2,10c-0.3,0-0.5,0-0.8,0H1241.8z M1334.6,359.2
			c10.1,0,18.1-2.2,24-6.6c5.9-4.4,10.3-10.5,12.6-17.4c2.6-7.6,4.2-15.6,4.6-23.6c0.5-8.3,0.5-16.5,0-24.8c-0.4-8-2-16-4.6-23.6
			c-2.3-6.9-6.7-13-12.6-17.4c-5.9-4.4-13.9-6.6-24-6.6c-9.9,0-17.8,2.3-23.8,6.8c-5.9,4.4-10.5,10.4-13.2,17.2
			c-2.8,7.1-4.4,14.7-4.6,22.4c-0.3,4.8-0.4,9.7-0.4,14.8c0,5.1,0.1,10.1,0.4,15.2c0.2,7.2,1.8,14.4,4.8,21
			c2.9,6.6,7.7,12.2,13.6,16.2C1317.6,357.1,1325.3,359.2,1334.6,359.2z"/>
		<path class="st3" d="M1510.2,479.2c-2.2,0-4.3-0.9-5.8-2.4c-1.7-1.5-2.6-3.7-2.6-6c0-0.7,0.2-1.5,0.4-2.2c0.3-0.9,0.7-2.1,1.2-3.4
			l31.2-74.8l-76.8-181.2c-0.7-1.7-1.1-3.4-1.2-5.2c0.2-2.3,1.2-4.5,2.8-6.2c1.5-1.7,3.7-2.6,6-2.6h39.2c3.2,0,5.6,0.9,7.2,2.6
			c1.5,1.6,2.7,3.4,3.6,5.4l49.6,123.6l50.8-123.6c1-2.1,2.4-4,4-5.6c1.6-1.6,4.1-2.4,7.6-2.4h38c2.3,0,4.6,0.9,6.2,2.6
			c1.6,1.5,2.6,3.6,2.6,5.8c-0.1,1.9-0.5,3.8-1.2,5.6l-113.2,262c-1,2.1-2.5,4-4.2,5.6c-1.7,1.6-4.3,2.4-7.8,2.4H1510.2z"/>
		<path class="st3" d="M1716.6,403.2c-5.3,0.2-9.8-3.9-10-9.2c0-0.3,0-0.6,0-0.8v-264c-0.2-5.3,3.9-9.8,9.2-10c0.3,0,0.6,0,0.8,0
			h39.2c2.6,0,5.1,1,7,2.8c2,1.9,3.1,4.5,3,7.2v135.2L1827,202c2.1-1.9,4.1-3.5,5.8-4.8c1.7-1.3,4.5-2,8.2-2h45.6
			c4.8,0,8.8,4,8.8,8.8c0,1.2-0.3,2.5-0.8,3.6c-0.5,1.3-1.5,2.5-2.8,3.2l-77.2,77.6l87.2,99.6c2.1,2.1,3.2,4.3,3.2,6.4
			c0,2.3-0.8,4.5-2.4,6.2c-1.7,1.8-4,2.7-6.4,2.6h-46.4c-4,0-6.9-0.7-8.6-2s-3.7-2.9-5.8-4.8l-69.6-78.4v75.2c0.1,2.7-1,5.3-3,7.2
			c-1.9,1.8-4.4,2.8-7,2.8L1716.6,403.2z"/>
		<path class="st3" d="M1990.2,407.2c-14.1,0-26.8-2.7-38-8.2c-10.7-5-19.9-12.7-26.8-22.2c-6.6-9.1-10.1-20-10-31.2
			c0-18.9,7.7-33.9,23-44.8c15.3-10.9,35.5-18.4,60.6-22.4l52.4-7.6v-7.2c0-10.4-2.4-18.4-7.2-24c-4.8-5.6-13.2-8.4-25.2-8.4
			c-8.8,0-15.8,1.7-21,5.2c-5.2,3.4-9.4,8.1-12.2,13.6c-2,3.4-5.7,5.4-9.6,5.2h-38c-2.5,0.2-5-0.8-6.8-2.6c-1.6-1.7-2.3-3.9-2-6.2
			c0-4.5,1.7-9.9,5.2-16c3.5-6.1,8.8-12.2,16-18.2c7.2-6,16.5-11,27.8-15c11.3-4,25-6,41-6c16.8,0,31.2,2,43.2,6
			c12,4,21.7,9.6,29,16.8c7.2,7,12.7,15.5,16,25c3.4,9.8,5.1,20.2,5,30.6v123.6c0.1,2.7-0.9,5.3-2.8,7.2c-1.8,1.8-4.2,2.8-6.8,2.8
			h-39.6c-2.6,0-5-1-6.8-2.8c-1.9-1.9-2.9-4.5-2.8-7.2v-14.8c-3.9,5.5-8.6,10.3-14,14.2c-6.4,4.7-13.5,8.2-21,10.6
			C2010.7,405.9,2001.2,407.2,1990.2,407.2z M2006.2,365.6c8.2,0.1,16.3-1.8,23.6-5.6c7.1-3.9,12.8-9.9,16.4-17.2
			c4-7.7,6-17.5,6-29.2v-6.8l-37.2,6c-14.1,2.4-24.5,6-31.2,10.8s-10,10.7-10,17.6c-0.1,4.8,1.5,9.4,4.6,13c3.3,3.7,7.4,6.6,12,8.4
			C1995.5,364.7,2000.8,365.7,2006.2,365.6L2006.2,365.6z"/>
		<path class="st3" d="M2259.4,403.2c-16.5,0-30.6-2.7-42.2-8.2c-11.4-5.3-20.8-14.2-26.6-25.4c-6.1-11.5-9.2-25.9-9.2-43.2v-84
			h-31.2c-2.7,0.1-5.3-0.9-7.2-2.8c-1.8-1.8-2.8-4.2-2.8-6.8v-27.6c-0.2-5.3,3.9-9.8,9.2-10c0.3,0,0.6,0,0.8,0h31.2v-66
			c-0.1-2.7,1-5.3,3-7.2c1.9-1.8,4.4-2.8,7-2.8h39.6c2.6,0,5,1,6.8,2.8c1.9,1.9,2.9,4.5,2.8,7.2v66h50c5.3-0.2,9.8,3.9,10,9.2
			c0,0.3,0,0.6,0,0.8v27.6c0,2.6-1,5-2.8,6.8c-1.9,1.9-4.5,2.9-7.2,2.8h-50v79.2c0,10.1,1.9,18.1,5.6,23.8s10,8.6,18.8,8.6h29.2
			c2.7-0.1,5.3,0.9,7.2,2.8c1.8,1.8,2.8,4.2,2.8,6.8v29.6c0.2,5.3-3.9,9.8-9.2,10c-0.3,0-0.6,0-0.8,0L2259.4,403.2z"/>
	</g>
	<g>
		<path class="st4" d="M2341,403.2c-2.3,0.1-4.5-0.9-6-2.6c-1.5-1.5-2.4-3.6-2.4-5.8c0-1.2,0.1-2.4,0.4-3.6l95.2-257.2
			c0.8-3,2.5-5.6,4.8-7.6c2.4-2.1,5.7-3.2,10-3.2h51.2c4.3,0,7.6,1.1,10,3.2c2.3,2.1,4.1,4.7,5.2,7.6l94.8,257.2
			c1.5,3.2,0.8,7-1.8,9.4c-1.6,1.7-3.9,2.6-6.2,2.6h-42c-3.7,0-6.5-0.9-8.4-2.8c-1.6-1.4-2.8-3.2-3.6-5.2l-17.2-44.8h-112.8
			l-16.8,44.8c-1,1.9-2.3,3.7-3.8,5.2c-1.7,1.9-4.6,2.8-8.6,2.8H2341z M2427.4,298.8h82.4L2468.6,184L2427.4,298.8z"/>
		<path class="st4" d="M2648.6,403.2c-2.6,0-5-1-6.8-2.8c-1.9-1.9-2.9-4.5-2.8-7.2v-260c-0.1-2.7,0.9-5.3,2.8-7.2
			c1.8-1.8,4.2-2.8,6.8-2.8h46c2.6,0,5,1,6.8,2.8c1.9,1.9,2.9,4.5,2.8,7.2v260c0.1,2.7-0.9,5.3-2.8,7.2c-1.8,1.8-4.2,2.8-6.8,2.8
			H2648.6z"/>
	</g>
</g>
</svg>
