<svg width="1798" height="505" viewBox="0 0 1798 505" fill="none" xmlns="http://www.w3.org/2000/svg">
<path d="M131 386C112.333 386 92.5 383.5 71.5 378.5C50.5 373.5 30.6667 366.667 12 358V294C55.3333 317.333 94 329 128 329C145 329 158.667 325.333 169 318C179.667 310.667 185 300.333 185 287C185 277.667 182 269.833 176 263.5C170.333 256.833 163.167 251.5 154.5 247.5C145.833 243.167 133.5 238 117.5 232C95.833 224 78.167 216.333 64.5 209C50.8333 201.667 39.1667 191.333 29.5 178C19.8333 164.333 15 146.833 15 125.5C15 94.1667 25.8333 69.8333 47.5 52.5C69.1667 34.8333 98.833 26 136.5 26C154.167 26 171.5 28 188.5 32C205.5 35.6666 221.167 41.1666 235.5 48.5V111C201.833 92.3333 169.333 83 138 83C120.667 83 107 86.1666 97 92.5C87.333 98.5 82.5 107.167 82.5 118.5C82.5 129.833 87.5 138.833 97.5 145.5C107.833 151.833 123.667 158.833 145 166.5C167.333 174.833 185.667 182.833 200 190.5C214.333 198.167 226.667 209.333 237 224C247.667 238.333 253.333 257 254 280C254 313 242.833 339 220.5 358C198.167 376.667 168.333 386 131 386Z" fill="#2F2E42"/>
<path d="M71.5 378.5L68.7206 390.174L71.5 378.5ZM12 358H0V365.659L6.9467 368.884L12 358ZM12 294L17.6892 283.434L0 273.909V294H12ZM169 318L162.202 308.111L162.128 308.162L162.055 308.214L169 318ZM176 263.5L166.857 271.272L167.066 271.518L167.289 271.753L176 263.5ZM154.5 247.5L149.133 258.233L149.301 258.317L149.471 258.396L154.5 247.5ZM117.5 232L121.713 220.764L121.685 220.753L121.657 220.743L117.5 232ZM64.5 209L58.8262 219.574L64.5 209ZM29.5 178L19.703 184.93L19.7435 184.987L19.7847 185.044L29.5 178ZM47.5 52.5L54.9963 61.8704L55.04 61.8355L55.0833 61.8002L47.5 52.5ZM188.5 32L185.752 43.681L185.861 43.7066L185.97 43.7302L188.5 32ZM235.5 48.5H247.5V41.1601L240.966 37.817L235.5 48.5ZM235.5 111L229.681 121.495L247.5 131.375V111H235.5ZM97 92.5L103.328 102.696L103.375 102.667L103.421 102.638L97 92.5ZM97.5 145.5L90.844 155.485L91.034 155.612L91.229 155.731L97.5 145.5ZM145 166.5L149.195 155.257L149.127 155.232L149.058 155.207L145 166.5ZM237 224L227.19 230.911L227.28 231.039L227.373 231.164L237 224ZM254 280H266V279.826L265.995 279.652L254 280ZM220.5 358L228.196 367.207L228.236 367.174L228.276 367.14L220.5 358ZM131 374C113.402 374 94.507 371.642 74.279 366.826L68.7206 390.174C90.493 395.358 111.265 398 131 398V374ZM74.279 366.826C54.0239 362.004 34.9557 355.428 17.0533 347.116L6.9467 368.884C26.3776 377.906 46.9761 384.996 68.7206 390.174L74.279 366.826ZM24 358V294H0V358H24ZM6.3108 304.566C50.6625 328.447 91.324 341 128 341V317C96.676 317 60.0042 306.219 17.6892 283.434L6.3108 304.566ZM128 341C146.651 341 162.992 336.978 175.945 327.786L162.055 308.214C154.341 313.688 143.349 317 128 317V341ZM175.798 327.888C189.836 318.237 197 304.143 197 287H173C173 296.524 169.497 303.096 162.202 308.111L175.798 327.888ZM197 287C197 274.832 192.98 263.975 184.711 255.247L167.289 271.753C171.02 275.692 173 280.502 173 287H197ZM185.143 255.728C178.249 247.617 169.632 241.267 159.529 236.604L149.471 258.396C156.702 261.733 162.418 266.05 166.857 271.272L185.143 255.728ZM159.867 236.767C150.646 232.156 137.859 226.819 121.713 220.764L113.287 243.236C129.141 249.181 141.021 254.177 149.133 258.233L159.867 236.767ZM121.657 220.743C100.285 212.852 83.177 205.403 70.1738 198.426L58.8262 219.574C73.156 227.263 91.382 235.148 113.344 243.257L121.657 220.743ZM70.1738 198.426C58.2016 192.002 47.8859 182.916 39.2153 170.956L19.7847 185.044C30.4475 199.751 43.4651 211.331 58.8262 219.574L70.1738 198.426ZM39.297 171.07C31.4128 159.924 27 145.034 27 125.5H3C3 148.633 8.2538 168.743 19.703 184.93L39.297 171.07ZM27 125.5C27 97.2786 36.5683 76.6129 54.9963 61.8704L40.0037 43.1296C15.0984 63.0538 3 91.0547 3 125.5H27ZM55.0833 61.8002C73.967 46.4026 100.637 38 136.5 38V14C97.03 14 64.3662 23.2641 39.9167 43.1998L55.0833 61.8002ZM136.5 38C153.252 38 169.663 39.8954 185.752 43.681L191.248 20.319C173.337 16.1046 155.081 14 136.5 14V38ZM185.97 43.7302C202.031 47.1944 216.701 52.3612 230.034 59.183L240.966 37.817C225.632 29.972 208.969 24.1389 191.03 20.2697L185.97 43.7302ZM223.5 48.5V111H247.5V48.5H223.5ZM241.319 100.505C206.275 81.0747 171.785 71 138 71V95C166.882 95 197.392 103.592 229.681 121.495L241.319 100.505ZM138 71C119.388 71 103.196 74.3718 90.579 82.3621L103.421 102.638C110.804 97.9615 121.945 95 138 95V71ZM90.672 82.3043C77.495 90.4828 70.5 102.996 70.5 118.5H94.5C94.5 111.337 97.172 106.517 103.328 102.696L90.672 82.3043ZM70.5 118.5C70.5 134.126 77.746 146.753 90.844 155.485L104.156 135.515C97.254 130.914 94.5 125.54 94.5 118.5H70.5ZM91.229 155.731C102.624 162.715 119.38 170.044 140.942 177.793L149.058 155.207C127.954 147.623 113.042 140.951 103.771 135.269L91.229 155.731ZM140.805 177.743C162.845 185.967 180.642 193.755 194.34 201.081L205.66 179.919C190.691 171.912 171.822 163.7 149.195 155.257L140.805 177.743ZM194.34 201.081C206.857 207.777 217.821 217.614 227.19 230.911L246.81 217.089C235.512 201.053 221.809 188.557 205.66 179.919L194.34 201.081ZM227.373 231.164C236.198 243.022 241.389 259.103 242.005 280.348L265.995 279.652C265.277 254.897 259.136 233.644 246.627 216.836L227.373 231.164ZM242 280C242 309.976 232.022 332.442 212.724 348.86L228.276 367.14C253.644 345.558 266 316.024 266 280H242ZM212.804 348.793C193.179 365.195 166.331 374 131 374V398C170.335 398 203.154 388.138 228.196 367.207L212.804 348.793Z" fill="#2F2E42"/>
<path d="M439 383C411.667 383 387.667 377.5 367 366.5C346.667 355.167 331 339.333 320 319C309 298.667 303.5 274.833 303.5 247.5C303.5 220.167 309.167 196.167 320.5 175.5C331.833 154.5 347.667 138.333 368 127C388.667 115.667 412.333 110 439 110C469 110 494.333 116.167 515 128.5V186.5H513C502 179.833 490 174.833 477 171.5C464.333 168.167 452.5 166.5 441.5 166.5C418.5 166.5 401.167 173.333 389.5 187C377.833 200.667 372 220.833 372 247.5C372 300.167 394.833 326.5 440.5 326.5C452.5 326.5 464.667 324.667 477 321C489.667 317 501.667 311.5 513 304.5H515V363.5C493.667 376.5 468.333 383 439 383Z" fill="#2F2E42"/>
<path d="M367 366.5L361.158 376.982L361.259 377.038L361.362 377.093L367 366.5ZM320 319L330.555 313.29L320 319ZM320.5 175.5L331.022 181.27L331.041 181.235L331.06 181.199L320.5 175.5ZM368 127L362.23 116.478L362.194 116.498L362.158 116.518L368 127ZM515 128.5H527V121.687L521.15 118.195L515 128.5ZM515 186.5V198.5H527V186.5H515ZM513 186.5L506.78 196.762L509.647 198.5H513V186.5ZM477 171.5L473.946 183.105L473.983 183.115L474.02 183.124L477 171.5ZM389.5 187L398.627 194.791L389.5 187ZM477 321L480.42 332.502L480.517 332.474L480.614 332.443L477 321ZM513 304.5V292.5H509.593L506.694 294.29L513 304.5ZM515 304.5H527V292.5H515V304.5ZM515 363.5L521.244 373.747L527 370.24V363.5H515ZM439 371C413.303 371 391.299 365.84 372.638 355.907L361.362 377.093C384.034 389.16 410.031 395 439 395V371ZM372.842 356.018C354.487 345.787 340.461 331.603 330.555 313.29L309.445 324.71C321.539 347.064 338.847 364.546 361.158 376.982L372.842 356.018ZM330.555 313.29C320.662 295.005 315.5 273.203 315.5 247.5H291.5C291.5 276.464 297.338 302.329 309.445 324.71L330.555 313.29ZM315.5 247.5C315.5 221.859 320.803 199.904 331.022 181.27L309.978 169.73C297.53 192.429 291.5 218.474 291.5 247.5H315.5ZM331.06 181.199C341.337 162.157 355.557 147.673 373.842 137.482L362.158 116.518C339.776 128.993 322.33 146.843 309.94 169.801L331.06 181.199ZM373.77 137.522C392.447 127.28 414.082 122 439 122V98C410.585 98 384.887 104.054 362.23 116.478L373.77 137.522ZM439 122C467.364 122 490.451 127.824 508.851 138.805L521.15 118.195C498.216 104.509 470.636 98 439 98V122ZM503 128.5V186.5H527V128.5H503ZM515 174.5H513V198.5H515V174.5ZM519.22 176.238C507.17 168.935 494.071 163.489 479.981 159.876L474.02 183.124C485.929 186.178 496.83 190.732 506.78 196.762L519.22 176.238ZM480.054 159.895C466.574 156.348 453.705 154.5 441.5 154.5V178.5C451.295 178.5 462.093 179.986 473.946 183.105L480.054 159.895ZM441.5 154.5C416.046 154.5 394.927 162.16 380.373 179.209L398.627 194.791C407.406 184.506 420.954 178.5 441.5 178.5V154.5ZM380.373 179.209C366.136 195.887 360 219.318 360 247.5H384C384 222.348 389.531 205.446 398.627 194.791L380.373 179.209ZM360 247.5C360 275.297 365.989 298.385 380.059 314.611C394.412 331.165 415.336 338.5 440.5 338.5V314.5C419.998 314.5 406.671 308.668 398.191 298.889C389.428 288.782 384 272.37 384 247.5H360ZM440.5 338.5C453.739 338.5 467.056 336.475 480.42 332.502L473.58 309.498C462.277 312.858 451.262 314.5 440.5 314.5V338.5ZM480.614 332.443C494.228 328.144 507.132 322.229 519.306 314.71L506.694 294.29C496.201 300.771 485.105 305.856 473.386 309.557L480.614 332.443ZM513 316.5H515V292.5H513V316.5ZM503 304.5V363.5H527V304.5H503ZM508.756 353.253C489.61 364.92 466.519 371 439 371V395C470.148 395 497.724 388.08 521.244 373.747L508.756 353.253Z" fill="#2F2E42"/>
<path d="M714.5 110V175H706C680 175 658.833 182.167 642.5 196.5V377H576.5V174V116H631.5L638 150.5C649 135.5 659 125 668 119C677 113 687 110 698 110H714.5Z" fill="#2F2E42"/>
<path d="M714.5 110H726.5V98H714.5V110ZM714.5 175V187H726.5V175H714.5ZM642.5 196.5L634.585 187.48L630.5 191.065V196.5H642.5ZM642.5 377V389H654.5V377H642.5ZM576.5 377H564.5V389H576.5V377ZM576.5 174H588.5V172.872L588.29 171.764L576.5 174ZM565.5 116V104V118.222V116ZM631.5 116L643.293 113.778L641.45 104H631.5V116ZM638 150.5L626.207 152.722L631.327 179.892L647.677 157.596L638 150.5ZM702.5 110V175H726.5V110H702.5ZM714.5 163H706V187H714.5V163ZM706 163C677.689 163 653.521 170.863 634.585 187.48L650.415 205.519C664.146 193.47 682.311 187 706 187V163ZM630.5 196.5V377H654.5V196.5H630.5ZM642.5 365H576.5V389H642.5V365ZM588.5 377V174H564.5V377H588.5ZM588.29 171.764L577.29 113.764L565.5 118.222L564.71 176.236L588.29 171.764ZM565.5 128H631.5V104H565.5V128ZM619.707 118.222L626.207 152.722L649.793 148.278L643.293 113.778L619.707 118.222ZM647.677 157.596C658.355 143.035 667.373 133.84 674.656 128.985L661.344 109.015C650.627 116.16 639.645 127.965 628.323 143.404L647.677 157.596ZM674.656 128.985C681.65 124.322 689.326 122 698 122V98C684.674 98 672.35 101.678 661.344 109.015L674.656 128.985ZM698 122H714.5V98H698V122Z" fill="#2F2E42"/>
<path d="M928.5 110C948.17 110 965.5 115.667 980.5 127C995.83 138 1007.67 153.667 1016 174C1024.67 194 1029 217.167 1029 243.5C1029 269.5 1024 293.167 1014 314.5C1004 335.5 990.17 352.167 972.5 364.5C955.17 376.5 935.5 382.5 913.5 382.5C886.833 382.5 863.167 377 842.5 366V492.5H776.5V173.5L765.5 115.5H826L836.5 152.5C848.5 138.833 862.5 128.333 878.5 121C894.5 113.667 911.167 110 928.5 110ZM900 328C939.67 328 959.5 300.167 959.5 244.5C959.5 218.833 955.5 199 947.5 185C939.83 171 928.5 164 913.5 164C889.5 164 865.833 175.667 842.5 199V320C863.833 325.333 883 328 900 328Z" fill="#2F2E42"/>
<path d="M980.5 127L973.27 136.574L973.38 136.664L973.51 136.75L980.5 127ZM1016 174L1004.9 178.551L1004.94 178.661L1004.99 178.771L1016 174ZM1014 314.5L1024.83 319.659L1024.85 319.626L1024.87 319.593L1014 314.5ZM972.5 364.5L979.33 374.366L979.35 374.353L979.37 374.339L972.5 364.5ZM842.5 366L848.138 355.407L830.5 346.019V366H842.5ZM842.5 492.5V504.5H854.5V492.5H842.5ZM776.5 492.5H764.5V504.5H776.5V492.5ZM776.5 173.5H788.5V172.372L788.29 171.264L776.5 173.5ZM826 115.5L837.544 112.224L835.068 103.5H826V115.5ZM836.5 152.5L824.956 155.776L830.974 176.981L845.517 160.418L836.5 152.5ZM947.5 185L936.97 190.764L937.03 190.859L937.08 190.954L947.5 185ZM842.5 199L834.015 190.515L830.5 194.029V199H842.5ZM842.5 320H830.5V329.369L839.59 331.642L842.5 320ZM928.5 122C945.68 122 960.45 126.891 973.27 136.574L987.73 117.426C970.55 104.442 950.65 98 928.5 98V122ZM973.51 136.75C986.72 146.233 997.27 159.953 1004.9 178.551L1027.1 169.449C1018.06 147.38 1004.94 129.766 987.49 117.25L973.51 136.75ZM1004.99 178.771C1012.88 196.986 1017 218.474 1017 243.5H1041C1041 215.86 1036.45 191.014 1027.01 169.229L1004.99 178.771ZM1017 243.5C1017 267.924 1012.31 289.826 1003.13 309.407L1024.87 319.593C1035.69 296.507 1041 271.076 1041 243.5H1017ZM1003.17 309.341C993.99 328.617 981.46 343.611 965.63 354.661L979.37 374.339C998.88 360.722 1014.01 342.383 1024.83 319.659L1003.17 309.341ZM965.67 354.634C950.43 365.181 933.172 370.5 913.5 370.5V394.5C937.83 394.5 959.9 387.819 979.33 374.366L965.67 354.634ZM913.5 370.5C888.523 370.5 866.841 365.362 848.138 355.407L836.862 376.593C859.493 388.638 885.143 394.5 913.5 394.5V370.5ZM830.5 366V492.5H854.5V366H830.5ZM842.5 480.5H776.5V504.5H842.5V480.5ZM788.5 492.5V173.5H764.5V492.5H788.5ZM788.29 171.264L777.29 113.264L765.5 115.5L764.71 175.736L788.29 171.264ZM765.5 127.5H826V103.5H765.5V127.5ZM814.456 118.776L824.956 155.776L848.044 149.224L837.544 112.224L814.456 118.776ZM845.517 160.418C856.442 147.976 869.086 138.515 883.5 131.909L873.5 110.091C855.914 118.152 840.558 129.691 827.483 144.582L845.517 160.418ZM883.5 131.909C897.956 125.283 912.92 122 928.5 122V98C909.414 98 891.044 102.05 873.5 110.091L883.5 131.909ZM900 340C922.999 340 941.84 331.706 954.4 314.089C966.42 297.22 971.5 273.395 971.5 244.5H947.5C947.5 271.271 942.67 289.197 934.852 300.161C927.572 310.378 916.668 316 900 316V340ZM971.5 244.5C971.5 217.861 967.4 195.63 957.92 179.046L937.08 190.954C943.6 202.37 947.5 219.805 947.5 244.5H971.5ZM958.03 179.236C953.39 170.775 947.31 163.83 939.56 159.04C931.763 154.227 922.939 152 913.5 152V176C919.061 176 923.404 177.273 926.944 179.46C930.523 181.67 933.942 185.225 936.97 190.764L958.03 179.236ZM913.5 152C885.276 152 858.736 165.793 834.015 190.515L850.985 207.485C872.93 185.54 893.724 176 913.5 176V152ZM830.5 199V320H854.5V199H830.5ZM839.59 331.642C861.613 337.147 881.781 340 900 340V316C884.219 316 866.054 313.519 845.41 308.358L839.59 331.642Z" fill="#2F2E42"/>
<path d="M1165.5 109.89H1225.5V158.89H1165.5V284.89C1165.5 310.223 1175.17 322.89 1194.5 322.89C1203.5 322.89 1214 319.723 1226 313.39V367.89C1217.67 370.89 1209.83 373.057 1202.5 374.39C1195.5 376.057 1187.5 376.89 1178.5 376.89C1125.83 376.89 1099.5 346.223 1099.5 284.89V158.89H1061.5V109.89H1099.5V39.8896L1165.5 16.8896V109.89Z" fill="#2F2E42"/>
<path d="M1165.5 109.89H1153.5V121.89H1165.5V109.89ZM1225.5 109.89H1237.5V97.8896H1225.5V109.89ZM1225.5 158.89V170.89H1237.5V158.89H1225.5ZM1165.5 158.89V146.89H1153.5V158.89H1165.5ZM1226 313.39H1238V293.488L1220.4 302.777L1226 313.39ZM1226 367.89L1230.06 379.181L1238 376.324V367.89H1226ZM1202.5 374.39L1200.35 362.584L1200.04 362.641L1199.72 362.716L1202.5 374.39ZM1099.5 158.89H1111.5V146.89H1099.5V158.89ZM1061.5 158.89H1049.5V170.89H1061.5V158.89ZM1061.5 109.89V97.8896H1049.5V109.89H1061.5ZM1099.5 109.89V121.89H1111.5V109.89H1099.5ZM1099.5 39.8896L1095.55 28.5579L1087.5 31.3636V39.8896H1099.5ZM1165.5 16.8896H1177.5V0L1161.55 5.558L1165.5 16.8896ZM1165.5 121.89H1225.5V97.8896H1165.5V121.89ZM1213.5 109.89V158.89H1237.5V109.89H1213.5ZM1225.5 146.89H1165.5V170.89H1225.5V146.89ZM1153.5 158.89V284.89H1177.5V158.89H1153.5ZM1153.5 284.89C1153.5 298.744 1156.08 311.332 1163.21 320.67C1170.81 330.621 1181.98 334.89 1194.5 334.89V310.89C1187.68 310.89 1184.36 308.825 1182.29 306.11C1179.75 302.781 1177.5 296.37 1177.5 284.89H1153.5ZM1194.5 334.89C1206.19 334.89 1218.68 330.823 1231.6 324.003L1220.4 302.777C1209.32 308.624 1200.81 310.89 1194.5 310.89V334.89ZM1214 313.39V367.89H1238V313.39H1214ZM1221.94 356.599C1214.11 359.415 1206.93 361.388 1200.35 362.584L1204.65 386.196C1212.74 384.725 1221.22 382.365 1230.06 379.181L1221.94 356.599ZM1199.72 362.716C1193.82 364.12 1186.79 364.89 1178.5 364.89V388.89C1188.21 388.89 1197.18 387.993 1205.28 386.064L1199.72 362.716ZM1178.5 364.89C1154.53 364.89 1138.59 357.998 1128.35 346.072C1117.81 333.797 1111.5 314.117 1111.5 284.89H1087.5C1087.5 316.997 1094.35 343.316 1110.15 361.708C1126.24 380.449 1149.8 388.89 1178.5 388.89V364.89ZM1111.5 284.89V158.89H1087.5V284.89H1111.5ZM1099.5 146.89H1061.5V170.89H1099.5V146.89ZM1073.5 158.89V109.89H1049.5V158.89H1073.5ZM1061.5 121.89H1099.5V97.8896H1061.5V121.89ZM1111.5 109.89V39.8896H1087.5V109.89H1111.5ZM1103.45 51.2212L1169.45 28.2212L1161.55 5.558L1095.55 28.5579L1103.45 51.2212ZM1153.5 16.8896V109.89H1177.5V16.8896H1153.5Z" fill="#2F2E42"/>
<path d="M1719.5 29H1785.5V377H1719.5V29Z" fill="#2F2E42"/>
<path d="M1719.5 29V17H1707.5V29H1719.5ZM1785.5 29H1797.5V17H1785.5V29ZM1785.5 377V389H1797.5V377H1785.5ZM1719.5 377H1707.5V389H1719.5V377ZM1719.5 41H1785.5V17H1719.5V41ZM1773.5 29V377H1797.5V29H1773.5ZM1785.5 365H1719.5V389H1785.5V365ZM1731.5 377V29H1707.5V377H1731.5Z" fill="#2F2E42"/>
<path d="M1719.5 29H1785.5V377H1719.5V29Z" fill="#2F2E42"/>
<path d="M1719.5 29V17H1707.5V29H1719.5ZM1785.5 29H1797.5V17H1785.5V29ZM1785.5 377V389H1797.5V377H1785.5ZM1719.5 377H1707.5V389H1719.5V377ZM1719.5 41H1785.5V17H1719.5V41ZM1773.5 29V377H1797.5V29H1773.5ZM1785.5 365H1719.5V389H1785.5V365ZM1731.5 377V29H1707.5V377H1731.5Z" fill="#2F2E42"/>
<path d="M1719.5 29H1785.5V377H1719.5V29Z" fill="#2F2E42"/>
<path d="M1719.5 29V17H1707.5V29H1719.5ZM1785.5 29H1797.5V17H1785.5V29ZM1785.5 377V389H1797.5V377H1785.5ZM1719.5 377H1707.5V389H1719.5V377ZM1719.5 41H1785.5V17H1719.5V41ZM1773.5 29V377H1797.5V29H1773.5ZM1785.5 365H1719.5V389H1785.5V365ZM1731.5 377V29H1707.5V377H1731.5Z" fill="#2F2E42"/>
<path d="M131 386C112.333 386 92.5 383.5 71.5 378.5C50.5 373.5 30.6667 366.667 12 358V294C55.3333 317.333 94 329 128 329C145 329 158.667 325.333 169 318C179.667 310.667 185 300.333 185 287C185 277.667 182 269.833 176 263.5C170.333 256.833 163.167 251.5 154.5 247.5C145.833 243.167 133.5 238 117.5 232C95.833 224 78.167 216.333 64.5 209C50.8333 201.667 39.1667 191.333 29.5 178C19.8333 164.333 15 146.833 15 125.5C15 94.1667 25.8333 69.8333 47.5 52.5C69.1667 34.8333 98.833 26 136.5 26C154.167 26 171.5 28 188.5 32C205.5 35.6666 221.167 41.1666 235.5 48.5V111C201.833 92.3333 169.333 83 138 83C120.667 83 107 86.1666 97 92.5C87.333 98.5 82.5 107.167 82.5 118.5C82.5 129.833 87.5 138.833 97.5 145.5C107.833 151.833 123.667 158.833 145 166.5C167.333 174.833 185.667 182.833 200 190.5C214.333 198.167 226.667 209.333 237 224C247.667 238.333 253.333 257 254 280C254 313 242.833 339 220.5 358C198.167 376.667 168.333 386 131 386Z" fill="#2F2E42"/>
<path d="M71.5 378.5L68.7206 390.174L71.5 378.5ZM12 358H0V365.659L6.9467 368.884L12 358ZM12 294L17.6892 283.434L0 273.909V294H12ZM169 318L162.202 308.111L162.128 308.162L162.055 308.214L169 318ZM176 263.5L166.857 271.272L167.066 271.518L167.289 271.753L176 263.5ZM154.5 247.5L149.133 258.233L149.301 258.317L149.471 258.396L154.5 247.5ZM117.5 232L121.713 220.764L121.685 220.753L121.657 220.743L117.5 232ZM64.5 209L58.8262 219.574L64.5 209ZM29.5 178L19.703 184.93L19.7435 184.987L19.7847 185.044L29.5 178ZM47.5 52.5L54.9963 61.8704L55.04 61.8355L55.0833 61.8002L47.5 52.5ZM188.5 32L185.752 43.681L185.861 43.7066L185.97 43.7302L188.5 32ZM235.5 48.5H247.5V41.1601L240.966 37.817L235.5 48.5ZM235.5 111L229.681 121.495L247.5 131.375V111H235.5ZM97 92.5L103.328 102.696L103.375 102.667L103.421 102.638L97 92.5ZM97.5 145.5L90.844 155.485L91.034 155.612L91.229 155.731L97.5 145.5ZM145 166.5L149.195 155.257L149.127 155.232L149.058 155.207L145 166.5ZM237 224L227.19 230.911L227.28 231.039L227.373 231.164L237 224ZM254 280H266V279.826L265.995 279.652L254 280ZM220.5 358L228.196 367.207L228.236 367.174L228.276 367.14L220.5 358ZM131 374C113.402 374 94.507 371.642 74.279 366.826L68.7206 390.174C90.493 395.358 111.265 398 131 398V374ZM74.279 366.826C54.0239 362.004 34.9557 355.428 17.0533 347.116L6.9467 368.884C26.3776 377.906 46.9761 384.996 68.7206 390.174L74.279 366.826ZM24 358V294H0V358H24ZM6.3108 304.566C50.6625 328.447 91.324 341 128 341V317C96.676 317 60.0042 306.219 17.6892 283.434L6.3108 304.566ZM128 341C146.651 341 162.992 336.978 175.945 327.786L162.055 308.214C154.341 313.688 143.349 317 128 317V341ZM175.798 327.888C189.836 318.237 197 304.143 197 287H173C173 296.524 169.497 303.096 162.202 308.111L175.798 327.888ZM197 287C197 274.832 192.98 263.975 184.711 255.247L167.289 271.753C171.02 275.692 173 280.502 173 287H197ZM185.143 255.728C178.249 247.617 169.632 241.267 159.529 236.604L149.471 258.396C156.702 261.733 162.418 266.05 166.857 271.272L185.143 255.728ZM159.867 236.767C150.646 232.156 137.859 226.819 121.713 220.764L113.287 243.236C129.141 249.181 141.021 254.177 149.133 258.233L159.867 236.767ZM121.657 220.743C100.285 212.852 83.177 205.403 70.1738 198.426L58.8262 219.574C73.156 227.263 91.382 235.148 113.344 243.257L121.657 220.743ZM70.1738 198.426C58.2016 192.002 47.8859 182.916 39.2153 170.956L19.7847 185.044C30.4475 199.751 43.4651 211.331 58.8262 219.574L70.1738 198.426ZM39.297 171.07C31.4128 159.924 27 145.034 27 125.5H3C3 148.633 8.2538 168.743 19.703 184.93L39.297 171.07ZM27 125.5C27 97.2786 36.5683 76.6129 54.9963 61.8704L40.0037 43.1296C15.0984 63.0538 3 91.0547 3 125.5H27ZM55.0833 61.8002C73.967 46.4026 100.637 38 136.5 38V14C97.03 14 64.3662 23.2641 39.9167 43.1998L55.0833 61.8002ZM136.5 38C153.252 38 169.663 39.8954 185.752 43.681L191.248 20.319C173.337 16.1046 155.081 14 136.5 14V38ZM185.97 43.7302C202.031 47.1944 216.701 52.3612 230.034 59.183L240.966 37.817C225.632 29.972 208.969 24.1389 191.03 20.2697L185.97 43.7302ZM223.5 48.5V111H247.5V48.5H223.5ZM241.319 100.505C206.275 81.0747 171.785 71 138 71V95C166.882 95 197.392 103.592 229.681 121.495L241.319 100.505ZM138 71C119.388 71 103.196 74.3718 90.579 82.3621L103.421 102.638C110.804 97.9615 121.945 95 138 95V71ZM90.672 82.3043C77.495 90.4828 70.5 102.996 70.5 118.5H94.5C94.5 111.337 97.172 106.517 103.328 102.696L90.672 82.3043ZM70.5 118.5C70.5 134.126 77.746 146.753 90.844 155.485L104.156 135.515C97.254 130.914 94.5 125.54 94.5 118.5H70.5ZM91.229 155.731C102.624 162.715 119.38 170.044 140.942 177.793L149.058 155.207C127.954 147.623 113.042 140.951 103.771 135.269L91.229 155.731ZM140.805 177.743C162.845 185.967 180.642 193.755 194.34 201.081L205.66 179.919C190.691 171.912 171.822 163.7 149.195 155.257L140.805 177.743ZM194.34 201.081C206.857 207.777 217.821 217.614 227.19 230.911L246.81 217.089C235.512 201.053 221.809 188.557 205.66 179.919L194.34 201.081ZM227.373 231.164C236.198 243.022 241.389 259.103 242.005 280.348L265.995 279.652C265.277 254.897 259.136 233.644 246.627 216.836L227.373 231.164ZM242 280C242 309.976 232.022 332.442 212.724 348.86L228.276 367.14C253.644 345.558 266 316.024 266 280H242ZM212.804 348.793C193.179 365.195 166.331 374 131 374V398C170.335 398 203.154 388.138 228.196 367.207L212.804 348.793Z" fill="#2F2E42"/>
<path d="M439 383C411.667 383 387.667 377.5 367 366.5C346.667 355.167 331 339.333 320 319C309 298.667 303.5 274.833 303.5 247.5C303.5 220.167 309.167 196.167 320.5 175.5C331.833 154.5 347.667 138.333 368 127C388.667 115.667 412.333 110 439 110C469 110 494.333 116.167 515 128.5V186.5H513C502 179.833 490 174.833 477 171.5C464.333 168.167 452.5 166.5 441.5 166.5C418.5 166.5 401.167 173.333 389.5 187C377.833 200.667 372 220.833 372 247.5C372 300.167 394.833 326.5 440.5 326.5C452.5 326.5 464.667 324.667 477 321C489.667 317 501.667 311.5 513 304.5H515V363.5C493.667 376.5 468.333 383 439 383Z" fill="#2F2E42"/>
<path d="M367 366.5L361.158 376.982L361.259 377.038L361.362 377.093L367 366.5ZM320 319L330.555 313.29L320 319ZM320.5 175.5L331.022 181.27L331.041 181.235L331.06 181.199L320.5 175.5ZM368 127L362.23 116.478L362.194 116.498L362.158 116.518L368 127ZM515 128.5H527V121.687L521.15 118.195L515 128.5ZM515 186.5V198.5H527V186.5H515ZM513 186.5L506.78 196.762L509.647 198.5H513V186.5ZM477 171.5L473.946 183.105L473.983 183.115L474.02 183.124L477 171.5ZM389.5 187L398.627 194.791L389.5 187ZM477 321L480.42 332.502L480.517 332.474L480.614 332.443L477 321ZM513 304.5V292.5H509.593L506.694 294.29L513 304.5ZM515 304.5H527V292.5H515V304.5ZM515 363.5L521.244 373.747L527 370.24V363.5H515ZM439 371C413.303 371 391.299 365.84 372.638 355.907L361.362 377.093C384.034 389.16 410.031 395 439 395V371ZM372.842 356.018C354.487 345.787 340.461 331.603 330.555 313.29L309.445 324.71C321.539 347.064 338.847 364.546 361.158 376.982L372.842 356.018ZM330.555 313.29C320.662 295.005 315.5 273.203 315.5 247.5H291.5C291.5 276.464 297.338 302.329 309.445 324.71L330.555 313.29ZM315.5 247.5C315.5 221.859 320.803 199.904 331.022 181.27L309.978 169.73C297.53 192.429 291.5 218.474 291.5 247.5H315.5ZM331.06 181.199C341.337 162.157 355.557 147.673 373.842 137.482L362.158 116.518C339.776 128.993 322.33 146.843 309.94 169.801L331.06 181.199ZM373.77 137.522C392.447 127.28 414.082 122 439 122V98C410.585 98 384.887 104.054 362.23 116.478L373.77 137.522ZM439 122C467.364 122 490.451 127.824 508.851 138.805L521.15 118.195C498.216 104.509 470.636 98 439 98V122ZM503 128.5V186.5H527V128.5H503ZM515 174.5H513V198.5H515V174.5ZM519.22 176.238C507.17 168.935 494.071 163.489 479.981 159.876L474.02 183.124C485.929 186.178 496.83 190.732 506.78 196.762L519.22 176.238ZM480.054 159.895C466.574 156.348 453.705 154.5 441.5 154.5V178.5C451.295 178.5 462.093 179.986 473.946 183.105L480.054 159.895ZM441.5 154.5C416.046 154.5 394.927 162.16 380.373 179.209L398.627 194.791C407.406 184.506 420.954 178.5 441.5 178.5V154.5ZM380.373 179.209C366.136 195.887 360 219.318 360 247.5H384C384 222.348 389.531 205.446 398.627 194.791L380.373 179.209ZM360 247.5C360 275.297 365.989 298.385 380.059 314.611C394.412 331.165 415.336 338.5 440.5 338.5V314.5C419.998 314.5 406.671 308.668 398.191 298.889C389.428 288.782 384 272.37 384 247.5H360ZM440.5 338.5C453.739 338.5 467.056 336.475 480.42 332.502L473.58 309.498C462.277 312.858 451.262 314.5 440.5 314.5V338.5ZM480.614 332.443C494.228 328.144 507.132 322.229 519.306 314.71L506.694 294.29C496.201 300.771 485.105 305.856 473.386 309.557L480.614 332.443ZM513 316.5H515V292.5H513V316.5ZM503 304.5V363.5H527V304.5H503ZM508.756 353.253C489.61 364.92 466.519 371 439 371V395C470.148 395 497.724 388.08 521.244 373.747L508.756 353.253Z" fill="#2F2E42"/>
<path d="M714.5 110V175H706C680 175 658.833 182.167 642.5 196.5V377H576.5V174V116H631.5L638 150.5C649 135.5 659 125 668 119C677 113 687 110 698 110H714.5Z" fill="#2F2E42"/>
<path d="M714.5 110H726.5V98H714.5V110ZM714.5 175V187H726.5V175H714.5ZM642.5 196.5L634.585 187.48L630.5 191.065V196.5H642.5ZM642.5 377V389H654.5V377H642.5ZM576.5 377H564.5V389H576.5V377ZM576.5 174H588.5V172.872L588.29 171.764L576.5 174ZM565.5 116V104V118.222V116ZM631.5 116L643.293 113.778L641.45 104H631.5V116ZM638 150.5L626.207 152.722L631.327 179.892L647.677 157.596L638 150.5ZM702.5 110V175H726.5V110H702.5ZM714.5 163H706V187H714.5V163ZM706 163C677.689 163 653.521 170.863 634.585 187.48L650.415 205.519C664.146 193.47 682.311 187 706 187V163ZM630.5 196.5V377H654.5V196.5H630.5ZM642.5 365H576.5V389H642.5V365ZM588.5 377V174H564.5V377H588.5ZM588.29 171.764L577.29 113.764L565.5 118.222L564.71 176.236L588.29 171.764ZM565.5 128H631.5V104H565.5V128ZM619.707 118.222L626.207 152.722L649.793 148.278L643.293 113.778L619.707 118.222ZM647.677 157.596C658.355 143.035 667.373 133.84 674.656 128.985L661.344 109.015C650.627 116.16 639.645 127.965 628.323 143.404L647.677 157.596ZM674.656 128.985C681.65 124.322 689.326 122 698 122V98C684.674 98 672.35 101.678 661.344 109.015L674.656 128.985ZM698 122H714.5V98H698V122Z" fill="#2F2E42"/>
<path d="M928.5 110C948.17 110 965.5 115.667 980.5 127C995.83 138 1007.67 153.667 1016 174C1024.67 194 1029 217.167 1029 243.5C1029 269.5 1024 293.167 1014 314.5C1004 335.5 990.17 352.167 972.5 364.5C955.17 376.5 935.5 382.5 913.5 382.5C886.833 382.5 863.167 377 842.5 366V492.5H776.5V173.5L765.5 115.5H826L836.5 152.5C848.5 138.833 862.5 128.333 878.5 121C894.5 113.667 911.167 110 928.5 110ZM900 328C939.67 328 959.5 300.167 959.5 244.5C959.5 218.833 955.5 199 947.5 185C939.83 171 928.5 164 913.5 164C889.5 164 865.833 175.667 842.5 199V320C863.833 325.333 883 328 900 328Z" fill="#2F2E42"/>
<path d="M980.5 127L973.27 136.574L973.38 136.664L973.51 136.75L980.5 127ZM1016 174L1004.9 178.551L1004.94 178.661L1004.99 178.771L1016 174ZM1014 314.5L1024.83 319.659L1024.85 319.626L1024.87 319.593L1014 314.5ZM972.5 364.5L979.33 374.366L979.35 374.353L979.37 374.339L972.5 364.5ZM842.5 366L848.138 355.407L830.5 346.019V366H842.5ZM842.5 492.5V504.5H854.5V492.5H842.5ZM776.5 492.5H764.5V504.5H776.5V492.5ZM776.5 173.5H788.5V172.372L788.29 171.264L776.5 173.5ZM826 115.5L837.544 112.224L835.068 103.5H826V115.5ZM836.5 152.5L824.956 155.776L830.974 176.981L845.517 160.418L836.5 152.5ZM947.5 185L936.97 190.764L937.03 190.859L937.08 190.954L947.5 185ZM842.5 199L834.015 190.515L830.5 194.029V199H842.5ZM842.5 320H830.5V329.369L839.59 331.642L842.5 320ZM928.5 122C945.68 122 960.45 126.891 973.27 136.574L987.73 117.426C970.55 104.442 950.65 98 928.5 98V122ZM973.51 136.75C986.72 146.233 997.27 159.953 1004.9 178.551L1027.1 169.449C1018.06 147.38 1004.94 129.766 987.49 117.25L973.51 136.75ZM1004.99 178.771C1012.88 196.986 1017 218.474 1017 243.5H1041C1041 215.86 1036.45 191.014 1027.01 169.229L1004.99 178.771ZM1017 243.5C1017 267.924 1012.31 289.826 1003.13 309.407L1024.87 319.593C1035.69 296.507 1041 271.076 1041 243.5H1017ZM1003.17 309.341C993.99 328.617 981.46 343.611 965.63 354.661L979.37 374.339C998.88 360.722 1014.01 342.383 1024.83 319.659L1003.17 309.341ZM965.67 354.634C950.43 365.181 933.172 370.5 913.5 370.5V394.5C937.83 394.5 959.9 387.819 979.33 374.366L965.67 354.634ZM913.5 370.5C888.523 370.5 866.841 365.362 848.138 355.407L836.862 376.593C859.493 388.638 885.143 394.5 913.5 394.5V370.5ZM830.5 366V492.5H854.5V366H830.5ZM842.5 480.5H776.5V504.5H842.5V480.5ZM788.5 492.5V173.5H764.5V492.5H788.5ZM788.29 171.264L777.29 113.264L765.5 115.5L764.71 175.736L788.29 171.264ZM765.5 127.5H826V103.5H765.5V127.5ZM814.456 118.776L824.956 155.776L848.044 149.224L837.544 112.224L814.456 118.776ZM845.517 160.418C856.442 147.976 869.086 138.515 883.5 131.909L873.5 110.091C855.914 118.152 840.558 129.691 827.483 144.582L845.517 160.418ZM883.5 131.909C897.956 125.283 912.92 122 928.5 122V98C909.414 98 891.044 102.05 873.5 110.091L883.5 131.909ZM900 340C922.999 340 941.84 331.706 954.4 314.089C966.42 297.22 971.5 273.395 971.5 244.5H947.5C947.5 271.271 942.67 289.197 934.852 300.161C927.572 310.378 916.668 316 900 316V340ZM971.5 244.5C971.5 217.861 967.4 195.63 957.92 179.046L937.08 190.954C943.6 202.37 947.5 219.805 947.5 244.5H971.5ZM958.03 179.236C953.39 170.775 947.31 163.83 939.56 159.04C931.763 154.227 922.939 152 913.5 152V176C919.061 176 923.404 177.273 926.944 179.46C930.523 181.67 933.942 185.225 936.97 190.764L958.03 179.236ZM913.5 152C885.276 152 858.736 165.793 834.015 190.515L850.985 207.485C872.93 185.54 893.724 176 913.5 176V152ZM830.5 199V320H854.5V199H830.5ZM839.59 331.642C861.613 337.147 881.781 340 900 340V316C884.219 316 866.054 313.519 845.41 308.358L839.59 331.642Z" fill="#2F2E42"/>
<path d="M1165.5 109.89H1225.5V158.89H1165.5V284.89C1165.5 310.223 1175.17 322.89 1194.5 322.89C1203.5 322.89 1214 319.723 1226 313.39V367.89C1217.67 370.89 1209.83 373.057 1202.5 374.39C1195.5 376.057 1187.5 376.89 1178.5 376.89C1125.83 376.89 1099.5 346.223 1099.5 284.89V158.89H1061.5V109.89H1099.5V39.8896L1165.5 16.8896V109.89Z" fill="#2F2E42"/>
<path d="M1165.5 109.89H1153.5V121.89H1165.5V109.89ZM1225.5 109.89H1237.5V97.8896H1225.5V109.89ZM1225.5 158.89V170.89H1237.5V158.89H1225.5ZM1165.5 158.89V146.89H1153.5V158.89H1165.5ZM1226 313.39H1238V293.488L1220.4 302.777L1226 313.39ZM1226 367.89L1230.06 379.181L1238 376.324V367.89H1226ZM1202.5 374.39L1200.35 362.584L1200.04 362.641L1199.72 362.716L1202.5 374.39ZM1099.5 158.89H1111.5V146.89H1099.5V158.89ZM1061.5 158.89H1049.5V170.89H1061.5V158.89ZM1061.5 109.89V97.8896H1049.5V109.89H1061.5ZM1099.5 109.89V121.89H1111.5V109.89H1099.5ZM1099.5 39.8896L1095.55 28.5579L1087.5 31.3636V39.8896H1099.5ZM1165.5 16.8896H1177.5V0L1161.55 5.558L1165.5 16.8896ZM1165.5 121.89H1225.5V97.8896H1165.5V121.89ZM1213.5 109.89V158.89H1237.5V109.89H1213.5ZM1225.5 146.89H1165.5V170.89H1225.5V146.89ZM1153.5 158.89V284.89H1177.5V158.89H1153.5ZM1153.5 284.89C1153.5 298.744 1156.08 311.332 1163.21 320.67C1170.81 330.621 1181.98 334.89 1194.5 334.89V310.89C1187.68 310.89 1184.36 308.825 1182.29 306.11C1179.75 302.781 1177.5 296.37 1177.5 284.89H1153.5ZM1194.5 334.89C1206.19 334.89 1218.68 330.823 1231.6 324.003L1220.4 302.777C1209.32 308.624 1200.81 310.89 1194.5 310.89V334.89ZM1214 313.39V367.89H1238V313.39H1214ZM1221.94 356.599C1214.11 359.415 1206.93 361.388 1200.35 362.584L1204.65 386.196C1212.74 384.725 1221.22 382.365 1230.06 379.181L1221.94 356.599ZM1199.72 362.716C1193.82 364.12 1186.79 364.89 1178.5 364.89V388.89C1188.21 388.89 1197.18 387.993 1205.28 386.064L1199.72 362.716ZM1178.5 364.89C1154.53 364.89 1138.59 357.998 1128.35 346.072C1117.81 333.797 1111.5 314.117 1111.5 284.89H1087.5C1087.5 316.997 1094.35 343.316 1110.15 361.708C1126.24 380.449 1149.8 388.89 1178.5 388.89V364.89ZM1111.5 284.89V158.89H1087.5V284.89H1111.5ZM1099.5 146.89H1061.5V170.89H1099.5V146.89ZM1073.5 158.89V109.89H1049.5V158.89H1073.5ZM1061.5 121.89H1099.5V97.8896H1061.5V121.89ZM1111.5 109.89V39.8896H1087.5V109.89H1111.5ZM1103.45 51.2212L1169.45 28.2212L1161.55 5.558L1095.55 28.5579L1103.45 51.2212ZM1153.5 16.8896V109.89H1177.5V16.8896H1153.5Z" fill="#2F2E42"/>
<path d="M1719.5 29H1785.5V377H1719.5V29Z" fill="#2F2E42"/>
<path d="M1719.5 29V17H1707.5V29H1719.5ZM1785.5 29H1797.5V17H1785.5V29ZM1785.5 377V389H1797.5V377H1785.5ZM1719.5 377H1707.5V389H1719.5V377ZM1719.5 41H1785.5V17H1719.5V41ZM1773.5 29V377H1797.5V29H1773.5ZM1785.5 365H1719.5V389H1785.5V365ZM1731.5 377V29H1707.5V377H1731.5Z" fill="#2F2E42"/>
<path d="M1719.5 29H1785.5V377H1719.5V29Z" fill="#2F2E42"/>
<path d="M1719.5 29V17H1707.5V29H1719.5ZM1785.5 29H1797.5V17H1785.5V29ZM1785.5 377V389H1797.5V377H1785.5ZM1719.5 377H1707.5V389H1719.5V377ZM1719.5 41H1785.5V17H1719.5V41ZM1773.5 29V377H1797.5V29H1773.5ZM1785.5 365H1719.5V389H1785.5V365ZM1731.5 377V29H1707.5V377H1731.5Z" fill="#2F2E42"/>
<path d="M1719.5 29H1785.5V377H1719.5V29Z" fill="#2F2E42"/>
<path d="M1719.5 29V17H1707.5V29H1719.5ZM1785.5 29H1797.5V17H1785.5V29ZM1785.5 377V389H1797.5V377H1785.5ZM1719.5 377H1707.5V389H1719.5V377ZM1719.5 41H1785.5V17H1719.5V41ZM1773.5 29V377H1797.5V29H1773.5ZM1785.5 365H1719.5V389H1785.5V365ZM1731.5 377V29H1707.5V377H1731.5Z" fill="#2F2E42"/>
<path d="M1719.5 29V17H1707.5V29H1719.5ZM1785.5 29H1797.5V17H1785.5V29ZM1785.5 377V389H1797.5V377H1785.5ZM1719.5 377H1707.5V389H1719.5V377ZM1719.5 41H1785.5V17H1719.5V41ZM1773.5 29V377H1797.5V29H1773.5ZM1785.5 365H1719.5V389H1785.5V365ZM1731.5 377V29H1707.5V377H1731.5Z" fill="#2F2E42"/>
<path d="M1319 388.5H1409.5L1504 150.5L1603 388H1693.5L1548 24H1461.5L1319 388.5Z" fill="#809DF5"/>
</svg>
